<?xml version="1.0" encoding="utf-8"?>
<!-- Generator: Adobe Illustrator 27.2.0, SVG Export Plug-In . SVG Version: 6.00 Build 0)  -->
<svg version="1.1" id="Layer_1" xmlns="http://www.w3.org/2000/svg" xmlns:xlink="http://www.w3.org/1999/xlink" x="0px" y="0px"
	 width="3840px" height="2160px" viewBox="850 450 250 190" style="enable-background:new 850 450 250 190;" xml:space="preserve">
<style type="text/css">
	.st0{fill:#000000;}
</style>
<rect x="870" y="470" width="200" height="150" fill="#FFFFFF"/>
<g>
	<g>
		<g>
			<path class="st0" d="M1068.33,581.23H923.4l65.93-132.09l25.97,54.45l8.73-9.8L1068.33,581.23z M945.54,567.54h100.51
				l-25.15-49.64l-9.08,10.19l-22.76-47.72L945.54,567.54z"/>
		</g>
		<polygon class="st0" points="971.6,529.8 964.11,545.45 975.13,567.54 874.63,567.54 899.77,517.9 908.86,528.09 931.62,480.37 
			960.33,537.9 967.99,522.57 931.34,449.14 905.37,503.59 896.64,493.79 852.34,581.23 997.27,581.23 		"/>
	</g>
	<g>
		<path class="st0" d="M868.63,596.35l-16.74,39.06h-10.88l-16.68-39.06h11.94l10.6,25.44l10.82-25.44H868.63z"/>
		<path class="st0" d="M874.6,633.9c-2.6-1.34-4.64-3.2-6.11-5.58c-1.47-2.38-2.2-5.08-2.2-8.09c0-2.98,0.73-5.65,2.2-8.03
			c1.47-2.38,3.5-4.23,6.08-5.55c2.58-1.32,5.51-1.98,8.79-1.98c3.27,0,6.21,0.66,8.82,1.98c2.6,1.32,4.63,3.16,6.08,5.52
			c1.45,2.36,2.18,5.05,2.18,8.06c0,3.01-0.73,5.71-2.18,8.09c-1.45,2.38-3.48,4.24-6.08,5.58c-2.6,1.34-5.54,2.01-8.82,2.01
			C880.13,635.91,877.21,635.24,874.6,633.9z M887.94,625.56c1.19-1.28,1.79-3.06,1.79-5.33c0-2.23-0.6-3.98-1.79-5.25
			c-1.19-1.26-2.72-1.9-4.57-1.9c-1.86,0-3.39,0.63-4.58,1.9c-1.19,1.27-1.79,3.01-1.79,5.25c0,2.27,0.59,4.04,1.79,5.33
			c1.19,1.28,2.72,1.92,4.58,1.92C885.22,627.48,886.75,626.84,887.94,625.56z"/>
		<path class="st0" d="M905.35,594.01h10.6v41.4h-10.6V594.01z"/>
		<path class="st0" d="M946.69,634.18c-0.89,0.56-1.98,0.99-3.26,1.28c-1.28,0.3-2.65,0.45-4.1,0.45c-3.94,0-6.97-0.97-9.09-2.9
			c-2.12-1.93-3.18-4.82-3.18-8.65V614.2h-4.41v-7.92h4.41v-7.87h10.6v7.87h6.92v7.92h-6.92v10.04c0,1.08,0.29,1.92,0.86,2.54
			c0.58,0.61,1.35,0.92,2.32,0.92c1.23,0,2.31-0.32,3.24-0.95L946.69,634.18z"/>
		<path class="st0" d="M990.88,596.35l-16.74,39.06h-10.88l-16.68-39.06h11.94l10.6,25.44l10.82-25.44H990.88z"/>
		<path class="st0" d="M994.12,600.2c-1.19-1.08-1.79-2.42-1.79-4.02c0-1.6,0.59-2.94,1.79-4.02c1.19-1.08,2.75-1.62,4.69-1.62
			c1.93,0,3.5,0.51,4.69,1.53c1.19,1.02,1.79,2.33,1.79,3.93c0,1.67-0.59,3.06-1.79,4.16c-1.19,1.1-2.75,1.64-4.69,1.64
			C996.87,601.82,995.31,601.28,994.12,600.2z M993.5,605.17h10.6v30.24h-10.6V605.17z"/>
		<path class="st0" d="M1041.71,622.96h-21.98c0.45,1.56,1.31,2.76,2.59,3.6c1.28,0.84,2.89,1.26,4.83,1.26
			c1.45,0,2.71-0.2,3.77-0.61c1.06-0.41,2.13-1.08,3.21-2.01l5.58,5.8c-2.94,3.27-7.24,4.91-12.89,4.91c-3.53,0-6.64-0.67-9.32-2.01
			c-2.68-1.34-4.75-3.2-6.22-5.58c-1.47-2.38-2.2-5.08-2.2-8.09c0-2.98,0.72-5.64,2.15-8.01c1.43-2.36,3.41-4.21,5.94-5.55
			c2.53-1.34,5.37-2.01,8.54-2.01c3.01,0,5.75,0.62,8.2,1.87c2.45,1.25,4.4,3.05,5.83,5.41c1.43,2.36,2.15,5.16,2.15,8.4
			C1041.88,620.42,1041.82,621.29,1041.71,622.96z M1021.65,613.59c-1.1,0.93-1.79,2.19-2.09,3.79h12.39c-0.3-1.6-1-2.86-2.09-3.79
			c-1.1-0.93-2.46-1.4-4.1-1.4C1024.12,612.2,1022.75,612.66,1021.65,613.59z"/>
		<path class="st0" d="M1096.33,605.17l-10.77,30.24h-10.27l-5.69-16.46l-5.91,16.46h-10.27l-10.77-30.24h10.04l6.19,18.3l6.42-18.3
			h9.04l6.25,18.47l6.42-18.47H1096.33z"/>
	</g>
</g>
</svg> 